<svg width="126" height="126" viewBox="0 0 126 126" fill="none" xmlns="http://www.w3.org/2000/svg">
<path fill-rule="evenodd" clip-rule="evenodd" d="M116.156 33.4491L61.425 23.4675L9.84375 33.4491V99.4612C9.84375 105.407 14.6278 110.191 20.5734 110.191H105.427C111.372 110.191 116.156 105.407 116.156 99.4612V33.4491Z" fill="#F0F3F5"/>
<path fill-rule="evenodd" clip-rule="evenodd" d="M20.5734 15.8091C14.6278 15.8091 9.84375 20.5931 9.84375 26.5387V33.4491H116.156V26.5387C116.156 20.5931 111.372 15.8091 105.427 15.8091H20.5734Z" fill="#5F41D9"/>
<path fill-rule="evenodd" clip-rule="evenodd" d="M83.6325 49.4156C85.3256 49.4156 86.6841 50.7741 86.6841 52.4672V62.3897C86.6841 64.2994 88.1409 65.7562 90.0506 65.7562H94.1259V52.4672C94.1259 50.7741 95.4844 49.4156 97.1775 49.4156C98.8706 49.4156 100.229 50.7741 100.229 52.4672V80.3447C100.229 82.0181 98.8706 83.3962 97.1775 83.3962C95.5041 83.3962 94.1259 82.0378 94.1259 80.3447V71.8594H90.0506C84.8728 71.8594 80.5809 67.5872 80.5809 62.3897V52.4672C80.5809 50.7741 81.9394 49.4156 83.6325 49.4156ZM63 55.5187C65.1066 55.5187 66.7209 57.1134 66.7209 59.2397V73.5919C66.7209 75.6984 65.1066 77.3128 63 77.3128C60.8934 77.3128 59.2791 75.6984 59.2791 73.5919V59.2397C59.2791 57.1331 60.8934 55.5187 63 55.5187ZM63 49.4156C57.6253 49.4156 53.1956 53.8453 53.1956 59.22V73.5722C53.1956 78.9469 57.6253 83.3766 63 83.3766C68.3747 83.3766 72.8044 78.9469 72.8044 73.5722V59.22C72.8044 53.8453 68.3747 49.4156 63 49.4156ZM28.8225 49.4156C30.4959 49.4156 31.8741 50.7741 31.8741 52.4672V62.3897C31.8741 64.2994 33.3112 65.7562 35.2406 65.7562H39.3159V52.4672C39.3159 50.7741 40.6744 49.4156 42.3675 49.4156C44.0606 49.4156 45.4191 50.7741 45.4191 52.4672V80.3447C45.4191 82.0181 44.0606 83.3962 42.3675 83.3962C40.6941 83.3962 39.3159 82.0378 39.3159 80.3447V71.8594H35.2406C30.0628 71.8594 25.7906 67.5872 25.7906 62.3897V52.4672C25.7906 50.7741 27.1491 49.4156 28.8422 49.4156H28.8225Z" fill="#5F41D9" fill-opacity="0.83"/>
<path d="M20.4356 27.0113C21.5229 27.0113 22.4044 26.1298 22.4044 25.0425C22.4044 23.9552 21.5229 23.0738 20.4356 23.0738C19.3483 23.0738 18.4669 23.9552 18.4669 25.0425C18.4669 26.1298 19.3483 27.0113 20.4356 27.0113Z" fill="#F0F3F5"/>
<path d="M28.3697 27.0113C29.457 27.0113 30.3384 26.1298 30.3384 25.0425C30.3384 23.9552 29.457 23.0738 28.3697 23.0738C27.2824 23.0738 26.4009 23.9552 26.4009 25.0425C26.4009 26.1298 27.2824 27.0113 28.3697 27.0113Z" fill="#F0F3F5"/>
<path d="M36.3038 27.0113C37.3911 27.0113 38.2725 26.1298 38.2725 25.0425C38.2725 23.9552 37.3911 23.0738 36.3038 23.0738C35.2164 23.0738 34.335 23.9552 34.335 25.0425C34.335 26.1298 35.2164 27.0113 36.3038 27.0113Z" fill="#F5F0F1"/>
<path fill-rule="evenodd" clip-rule="evenodd" d="M53.8256 23.0541C52.7428 23.0541 51.8569 23.94 51.8569 25.0228C51.8569 26.1056 52.7428 26.9916 53.8256 26.9916H103.989C105.072 26.9916 105.958 26.1056 105.958 25.0228C105.958 23.94 105.072 23.0541 103.989 23.0541H53.8256ZM47.5256 91.9997C46.4428 91.9997 45.5569 92.8856 45.5569 93.9685C45.5569 95.0513 46.4428 95.9372 47.5256 95.9372H78.4547C79.5375 95.9372 80.4234 95.0513 80.4234 93.9685C80.4234 92.8856 79.5375 91.9997 78.4547 91.9997H47.5256Z" fill="#423D51"/>
<path fill-rule="evenodd" clip-rule="evenodd" d="M53.8256 23.0541C52.7428 23.0541 51.8569 23.94 51.8569 25.0228C51.8569 26.1056 52.7428 26.9916 53.8256 26.9916H103.989C105.072 26.9916 105.958 26.1056 105.958 25.0228C105.958 23.94 105.072 23.0541 103.989 23.0541H53.8256ZM47.5256 91.9997C46.4428 91.9997 45.5569 92.8856 45.5569 93.9685C45.5569 95.0513 46.4428 95.9372 47.5256 95.9372H78.4547C79.5375 95.9372 80.4234 95.0513 80.4234 93.9685C80.4234 92.8856 79.5375 91.9997 78.4547 91.9997H47.5256Z" fill="white"/>
<path d="M31.7363 95.9372C32.8236 95.9372 33.705 95.0558 33.705 93.9684C33.705 92.8811 32.8236 91.9997 31.7363 91.9997C30.6489 91.9997 29.7675 92.8811 29.7675 93.9684C29.7675 95.0558 30.6489 95.9372 31.7363 95.9372Z" fill="#785FDE"/>
<path d="M39.6703 95.9372C40.7576 95.9372 41.6391 95.0558 41.6391 93.9684C41.6391 92.8811 40.7576 91.9997 39.6703 91.9997C38.583 91.9997 37.7016 92.8811 37.7016 93.9684C37.7016 95.0558 38.583 95.9372 39.6703 95.9372Z" fill="#785FDE"/>
<path d="M86.3297 95.9372C87.417 95.9372 88.2984 95.0558 88.2984 93.9684C88.2984 92.8811 87.417 91.9997 86.3297 91.9997C85.2424 91.9997 84.3609 92.8811 84.3609 93.9684C84.3609 95.0558 85.2424 95.9372 86.3297 95.9372Z" fill="#785FDE"/>
<path d="M94.2638 95.9372C95.3511 95.9372 96.2325 95.0558 96.2325 93.9684C96.2325 92.8811 95.3511 91.9997 94.2638 91.9997C93.1765 91.9997 92.295 92.8811 92.295 93.9684C92.295 95.0558 93.1765 95.9372 94.2638 95.9372Z" fill="#785FDE"/>
</svg>
