<svg width="1396" height="149" viewBox="0 0 1396 149" fill="none" xmlns="http://www.w3.org/2000/svg">
<circle cx="958.996" cy="27.7389" r="13.4865" transform="rotate(20.0728 958.996 27.7389)" fill="url(#paint0_linear_85_106)" fill-opacity="0.8"/>
<g filter="url(#filter0_b_85_106)">
<path fill-rule="evenodd" clip-rule="evenodd" d="M963.42 22.1669L984.541 29.8847C989.207 31.5897 991.607 36.7543 989.903 41.4202L982.185 62.5411C980.48 67.2071 975.315 69.6074 970.649 67.9024L949.528 60.1846C944.862 58.4796 942.462 53.315 944.167 48.6491L951.885 27.5282C953.59 22.8623 958.754 20.462 963.42 22.1669Z" fill="url(#paint1_linear_85_106)" fill-opacity="0.8"/>
<path fill-rule="evenodd" clip-rule="evenodd" d="M963.42 22.1669L984.541 29.8847C989.207 31.5897 991.607 36.7543 989.903 41.4202L982.185 62.5411C980.48 67.2071 975.315 69.6074 970.649 67.9024L949.528 60.1846C944.862 58.4796 942.462 53.315 944.167 48.6491L951.885 27.5282C953.59 22.8623 958.754 20.462 963.42 22.1669Z" stroke="url(#paint2_radial_85_106)" stroke-opacity="0.8" stroke-width="1.5" stroke-linecap="round"/>
</g>
<path d="M980.479 47.5535L978.936 51.7777" stroke="white" stroke-opacity="0.8" stroke-width="1.5" stroke-linecap="round" stroke-linejoin="round"/>
<g filter="url(#filter1_b_85_106)">
<path fill-rule="evenodd" clip-rule="evenodd" d="M975.686 41.014L971.056 53.6866L975.686 41.014Z" fill="url(#paint3_linear_85_106)" fill-opacity="0.8"/>
<path d="M975.686 41.014L971.056 53.6866" stroke="url(#paint4_radial_85_106)" stroke-opacity="0.8" stroke-width="1.5" stroke-linecap="round"/>
</g>
<path d="M953.591 42.5162L955.134 38.292" stroke="white" stroke-opacity="0.8" stroke-width="1.5" stroke-linecap="round" stroke-linejoin="round"/>
<g filter="url(#filter2_b_85_106)">
<path fill-rule="evenodd" clip-rule="evenodd" d="M958.383 49.0559L963.014 36.3833L958.383 49.0559Z" fill="url(#paint5_linear_85_106)" fill-opacity="0.8"/>
<path d="M958.383 49.0559L963.014 36.3833" stroke="url(#paint6_radial_85_106)" stroke-opacity="0.8" stroke-width="1.5" stroke-linecap="round"/>
</g>
<path d="M970.894 34.4746L963.176 55.5955" stroke="white" stroke-opacity="0.8" stroke-width="1.5" stroke-linecap="round" stroke-linejoin="round"/>
<circle cx="33.2662" cy="62.22" r="20.6241" transform="rotate(15 33.2662 62.22)" fill="url(#paint7_linear_85_106)" fill-opacity="0.8"/>
<g filter="url(#filter3_b_85_106)">
<path fill-rule="evenodd" clip-rule="evenodd" d="M36.8248 48.939L76.6675 59.6148L36.8248 48.939Z" fill="url(#paint8_linear_85_106)" fill-opacity="0.8"/>
<path d="M36.8248 48.939L76.6675 59.6148" stroke="url(#paint9_radial_85_106)" stroke-opacity="0.8" stroke-width="1.5" stroke-linecap="round"/>
</g>
<g filter="url(#filter4_b_85_106)">
<path fill-rule="evenodd" clip-rule="evenodd" d="M46.134 40.7577L72.6958 47.8749L46.134 40.7577Z" fill="url(#paint10_linear_85_106)" fill-opacity="0.8"/>
<path d="M46.134 40.7577L72.6958 47.8749" stroke="url(#paint11_radial_85_106)" stroke-opacity="0.8" stroke-width="1.5" stroke-linecap="round"/>
</g>
<g filter="url(#filter5_b_85_106)">
<path fill-rule="evenodd" clip-rule="evenodd" d="M67.6525 117.696L15.5913 103.746C11.6303 102.685 9.27993 98.6137 10.3413 94.6527L18.9531 62.5129C20.0145 58.5519 24.0854 56.2015 28.0464 57.2629L80.1076 71.2126C84.0686 72.274 86.419 76.3449 85.3576 80.306L76.7458 112.446C75.6844 116.407 71.6135 118.757 67.6525 117.696Z" fill="url(#paint12_linear_85_106)" fill-opacity="0.8"/>
<path fill-rule="evenodd" clip-rule="evenodd" d="M67.6525 117.696L15.5913 103.746C11.6303 102.685 9.27993 98.6137 10.3413 94.6527L18.9531 62.5129C20.0145 58.5519 24.0854 56.2015 28.0464 57.2629L80.1076 71.2126C84.0686 72.274 86.419 76.3449 85.3576 80.306L76.7458 112.446C75.6844 116.407 71.6135 118.757 67.6525 117.696Z" stroke="url(#paint13_radial_85_106)" stroke-opacity="0.8" stroke-width="1.5" stroke-linecap="round"/>
</g>
<path fill-rule="evenodd" clip-rule="evenodd" d="M46.2145 76.7413L57.061 87.8182C58.4332 89.2178 57.8007 91.5785 55.9125 92.1046L40.9807 96.2742C39.0573 96.8121 37.28 95.0513 37.7969 93.1222L41.8813 77.8791C42.3982 75.95 44.8178 75.3137 46.2145 76.7413V76.7413Z" stroke="white" stroke-opacity="0.8" stroke-width="1.5" stroke-linecap="round" stroke-linejoin="round"/>
<ellipse cx="1326.72" cy="60.702" rx="20.9063" ry="20.9063" transform="rotate(15 1326.72 60.702)" fill="url(#paint14_linear_85_106)" fill-opacity="0.8"/>
<g filter="url(#filter6_b_85_106)">
<path fill-rule="evenodd" clip-rule="evenodd" d="M1330.33 47.2392L1370.72 58.0612L1330.33 47.2392Z" fill="url(#paint15_linear_85_106)" fill-opacity="0.8"/>
<path d="M1330.33 47.2392L1370.72 58.0612" stroke="url(#paint16_radial_85_106)" stroke-opacity="0.8" stroke-width="1.5" stroke-linecap="round"/>
</g>
<g filter="url(#filter7_b_85_106)">
<path fill-rule="evenodd" clip-rule="evenodd" d="M1339.77 38.946L1366.69 46.1606L1339.77 38.946Z" fill="url(#paint17_linear_85_106)" fill-opacity="0.8"/>
<path d="M1339.77 38.946L1366.69 46.1606" stroke="url(#paint18_radial_85_106)" stroke-opacity="0.8" stroke-width="1.5" stroke-linecap="round"/>
</g>
<g filter="url(#filter8_b_85_106)">
<path fill-rule="evenodd" clip-rule="evenodd" d="M1361.58 116.937L1308.8 102.796C1304.79 101.72 1302.41 97.5938 1303.48 93.5786L1312.21 60.9989C1313.29 56.9837 1317.41 54.6012 1321.43 55.6771L1374.2 69.8177C1378.22 70.8936 1380.6 75.0202 1379.53 79.0355L1370.8 111.615C1369.72 115.63 1365.59 118.013 1361.58 116.937Z" fill="url(#paint19_linear_85_106)" fill-opacity="0.8"/>
<path fill-rule="evenodd" clip-rule="evenodd" d="M1361.58 116.937L1308.8 102.796C1304.79 101.72 1302.41 97.5938 1303.48 93.5786L1312.21 60.9989C1313.29 56.9837 1317.41 54.6012 1321.43 55.6771L1374.2 69.8177C1378.22 70.8936 1380.6 75.0202 1379.53 79.0355L1370.8 111.615C1369.72 115.63 1365.59 118.013 1361.58 116.937Z" stroke="url(#paint20_radial_85_106)" stroke-opacity="0.8" stroke-width="1.5" stroke-linecap="round"/>
</g>
<path fill-rule="evenodd" clip-rule="evenodd" d="M1339.85 75.422L1350.84 86.6505C1352.23 88.0693 1351.59 90.4623 1349.68 90.9956L1334.54 95.2222C1332.59 95.7676 1330.79 93.9826 1331.31 92.0272L1335.45 76.5754C1335.98 74.6199 1338.43 73.9749 1339.85 75.422V75.422Z" stroke="white" stroke-opacity="0.8" stroke-width="1.5" stroke-linecap="round" stroke-linejoin="round"/>
<circle cx="303.5" cy="-6.75" r="13.5" fill="url(#paint21_linear_85_106)"/>
<g filter="url(#filter9_b_85_106)">
<path fill-rule="evenodd" clip-rule="evenodd" d="M334.64 22.5002H299.36C296.676 22.5002 294.5 20.3245 294.5 17.6402V-4.13979C294.5 -6.82404 296.676 -8.99979 299.36 -8.99979H334.64C337.324 -8.99979 339.5 -6.82404 339.5 -4.13979V17.6402C339.5 20.3245 337.324 22.5002 334.64 22.5002Z" fill="url(#paint22_linear_85_106)"/>
<path fill-rule="evenodd" clip-rule="evenodd" d="M334.64 22.5002H299.36C296.676 22.5002 294.5 20.3245 294.5 17.6402V-4.13979C294.5 -6.82404 296.676 -8.99979 299.36 -8.99979H334.64C337.324 -8.99979 339.5 -6.82404 339.5 -4.13979V17.6402C339.5 20.3245 337.324 22.5002 334.64 22.5002Z" stroke="url(#paint23_radial_85_106)" stroke-width="1.5" stroke-linecap="round"/>
</g>
<path fill-rule="evenodd" clip-rule="evenodd" d="M314.147 0.237774L322.881 5.40377C323.986 6.05627 323.986 7.65602 322.881 8.30852L314.147 13.4745C313.022 14.1405 311.6 13.3283 311.6 12.021V1.69127C311.6 0.384024 313.022 -0.428226 314.147 0.237774V0.237774Z" stroke="white" stroke-width="1.5" stroke-linecap="round" stroke-linejoin="round"/>
<ellipse cx="598.438" cy="121.002" rx="16.8388" ry="16.8388" transform="rotate(-21.0468 598.438 121.002)" fill="url(#paint24_linear_85_106)" fill-opacity="0.8"/>
<g filter="url(#filter10_b_85_106)">
<path fill-rule="evenodd" clip-rule="evenodd" d="M632.677 117.821L640.535 114.797C643.429 113.684 644.871 110.437 643.757 107.543L630.655 73.493C629.541 70.5988 626.295 69.1566 623.4 70.2703L581.493 86.3965C578.598 87.5102 577.156 90.7565 578.27 93.6507L591.373 127.701C592.486 130.595 595.733 132.037 598.627 130.923L622.2 121.852" fill="url(#paint25_linear_85_106)" fill-opacity="0.8"/>
<path d="M632.677 117.821L640.535 114.797C643.429 113.684 644.871 110.437 643.757 107.543L630.655 73.493C629.541 70.5988 626.295 69.1566 623.4 70.2703L581.493 86.3965C578.598 87.5102 577.156 90.7565 578.27 93.6507L591.373 127.701C592.486 130.595 595.733 132.037 598.627 130.923L622.2 121.852" stroke="url(#paint26_radial_85_106)" stroke-opacity="0.8" stroke-width="1.5" stroke-linecap="round"/>
</g>
<g filter="url(#filter11_b_85_106)">
<path fill-rule="evenodd" clip-rule="evenodd" d="M598.116 90.5244L613.832 84.4771L598.116 90.5244Z" fill="url(#paint27_linear_85_106)" fill-opacity="0.8"/>
<path d="M598.116 90.5244L613.832 84.4771" stroke="url(#paint28_radial_85_106)" stroke-opacity="0.8" stroke-width="1.5" stroke-linecap="round"/>
</g>
<g filter="url(#filter12_b_85_106)">
<path fill-rule="evenodd" clip-rule="evenodd" d="M625.217 90.6205L593.786 102.715L625.217 90.6205Z" fill="url(#paint29_linear_85_106)" fill-opacity="0.8"/>
<path d="M625.217 90.6205L593.786 102.715" stroke="url(#paint30_radial_85_106)" stroke-opacity="0.8" stroke-width="1.5" stroke-linecap="round"/>
</g>
<g filter="url(#filter13_b_85_106)">
<path fill-rule="evenodd" clip-rule="evenodd" d="M599.33 117.121L607.187 114.097L599.33 117.121Z" fill="url(#paint31_linear_85_106)" fill-opacity="0.8"/>
<path d="M599.33 117.121L607.187 114.097" stroke="url(#paint32_radial_85_106)" stroke-opacity="0.8" stroke-width="1.5" stroke-linecap="round"/>
</g>
<path d="M626.825 101.665C631.074 103.553 632.989 108.528 631.101 112.778C629.213 117.027 624.238 118.942 619.989 117.054C615.739 115.166 613.825 110.191 615.712 105.942C617.6 101.692 622.575 99.7776 626.825 101.665" stroke="white" stroke-opacity="0.8" stroke-width="1.5" stroke-linecap="round" stroke-linejoin="round"/>
<path d="M630.884 113.161L635.7 125.679L629.454 125.075L625.224 129.71L620.407 117.193" stroke="white" stroke-opacity="0.8" stroke-width="1.5" stroke-linecap="round" stroke-linejoin="round"/>
<defs>
<filter id="filter0_b_85_106" x="933.868" y="11.8679" width="66.3335" height="66.3335" filterUnits="userSpaceOnUse" color-interpolation-filters="sRGB">
<feFlood flood-opacity="0" result="BackgroundImageFix"/>
<feGaussianBlur in="BackgroundImageFix" stdDeviation="4.5"/>
<feComposite in2="SourceAlpha" operator="in" result="effect1_backgroundBlur_85_106"/>
<feBlend mode="normal" in="SourceGraphic" in2="effect1_backgroundBlur_85_106" result="shape"/>
</filter>
<filter id="filter1_b_85_106" x="961.306" y="31.2638" width="24.1309" height="32.173" filterUnits="userSpaceOnUse" color-interpolation-filters="sRGB">
<feFlood flood-opacity="0" result="BackgroundImageFix"/>
<feGaussianBlur in="BackgroundImageFix" stdDeviation="4.5"/>
<feComposite in2="SourceAlpha" operator="in" result="effect1_backgroundBlur_85_106"/>
<feBlend mode="normal" in="SourceGraphic" in2="effect1_backgroundBlur_85_106" result="shape"/>
</filter>
<filter id="filter2_b_85_106" x="948.633" y="26.6331" width="24.1311" height="32.173" filterUnits="userSpaceOnUse" color-interpolation-filters="sRGB">
<feFlood flood-opacity="0" result="BackgroundImageFix"/>
<feGaussianBlur in="BackgroundImageFix" stdDeviation="4.5"/>
<feComposite in2="SourceAlpha" operator="in" result="effect1_backgroundBlur_85_106"/>
<feBlend mode="normal" in="SourceGraphic" in2="effect1_backgroundBlur_85_106" result="shape"/>
</filter>
<filter id="filter3_b_85_106" x="27.0746" y="39.1888" width="59.3431" height="30.1762" filterUnits="userSpaceOnUse" color-interpolation-filters="sRGB">
<feFlood flood-opacity="0" result="BackgroundImageFix"/>
<feGaussianBlur in="BackgroundImageFix" stdDeviation="4.5"/>
<feComposite in2="SourceAlpha" operator="in" result="effect1_backgroundBlur_85_106"/>
<feBlend mode="normal" in="SourceGraphic" in2="effect1_backgroundBlur_85_106" result="shape"/>
</filter>
<filter id="filter4_b_85_106" x="36.3838" y="31.0075" width="46.0623" height="26.6176" filterUnits="userSpaceOnUse" color-interpolation-filters="sRGB">
<feFlood flood-opacity="0" result="BackgroundImageFix"/>
<feGaussianBlur in="BackgroundImageFix" stdDeviation="4.5"/>
<feComposite in2="SourceAlpha" operator="in" result="effect1_backgroundBlur_85_106"/>
<feBlend mode="normal" in="SourceGraphic" in2="effect1_backgroundBlur_85_106" result="shape"/>
</filter>
<filter id="filter5_b_85_106" x="0.336182" y="47.2578" width="95.0265" height="80.443" filterUnits="userSpaceOnUse" color-interpolation-filters="sRGB">
<feFlood flood-opacity="0" result="BackgroundImageFix"/>
<feGaussianBlur in="BackgroundImageFix" stdDeviation="4.5"/>
<feComposite in2="SourceAlpha" operator="in" result="effect1_backgroundBlur_85_106"/>
<feBlend mode="normal" in="SourceGraphic" in2="effect1_backgroundBlur_85_106" result="shape"/>
</filter>
<filter id="filter6_b_85_106" x="1320.58" y="37.4891" width="59.8884" height="30.3223" filterUnits="userSpaceOnUse" color-interpolation-filters="sRGB">
<feFlood flood-opacity="0" result="BackgroundImageFix"/>
<feGaussianBlur in="BackgroundImageFix" stdDeviation="4.5"/>
<feComposite in2="SourceAlpha" operator="in" result="effect1_backgroundBlur_85_106"/>
<feBlend mode="normal" in="SourceGraphic" in2="effect1_backgroundBlur_85_106" result="shape"/>
</filter>
<filter id="filter7_b_85_106" x="1330.02" y="29.1958" width="46.4258" height="26.715" filterUnits="userSpaceOnUse" color-interpolation-filters="sRGB">
<feFlood flood-opacity="0" result="BackgroundImageFix"/>
<feGaussianBlur in="BackgroundImageFix" stdDeviation="4.5"/>
<feComposite in2="SourceAlpha" operator="in" result="effect1_backgroundBlur_85_106"/>
<feBlend mode="normal" in="SourceGraphic" in2="effect1_backgroundBlur_85_106" result="shape"/>
</filter>
<filter id="filter8_b_85_106" x="1293.47" y="45.6685" width="96.0601" height="81.277" filterUnits="userSpaceOnUse" color-interpolation-filters="sRGB">
<feFlood flood-opacity="0" result="BackgroundImageFix"/>
<feGaussianBlur in="BackgroundImageFix" stdDeviation="4.5"/>
<feComposite in2="SourceAlpha" operator="in" result="effect1_backgroundBlur_85_106"/>
<feBlend mode="normal" in="SourceGraphic" in2="effect1_backgroundBlur_85_106" result="shape"/>
</filter>
<filter id="filter9_b_85_106" x="284.75" y="-18.7498" width="64.5" height="51" filterUnits="userSpaceOnUse" color-interpolation-filters="sRGB">
<feFlood flood-opacity="0" result="BackgroundImageFix"/>
<feGaussianBlur in="BackgroundImageFix" stdDeviation="4.5"/>
<feComposite in2="SourceAlpha" operator="in" result="effect1_backgroundBlur_85_106"/>
<feBlend mode="normal" in="SourceGraphic" in2="effect1_backgroundBlur_85_106" result="shape"/>
</filter>
<filter id="filter10_b_85_106" x="568.144" y="60.1439" width="85.7401" height="80.9061" filterUnits="userSpaceOnUse" color-interpolation-filters="sRGB">
<feFlood flood-opacity="0" result="BackgroundImageFix"/>
<feGaussianBlur in="BackgroundImageFix" stdDeviation="4.5"/>
<feComposite in2="SourceAlpha" operator="in" result="effect1_backgroundBlur_85_106"/>
<feBlend mode="normal" in="SourceGraphic" in2="effect1_backgroundBlur_85_106" result="shape"/>
</filter>
<filter id="filter11_b_85_106" x="588.366" y="74.7269" width="35.2158" height="25.5477" filterUnits="userSpaceOnUse" color-interpolation-filters="sRGB">
<feFlood flood-opacity="0" result="BackgroundImageFix"/>
<feGaussianBlur in="BackgroundImageFix" stdDeviation="4.5"/>
<feComposite in2="SourceAlpha" operator="in" result="effect1_backgroundBlur_85_106"/>
<feBlend mode="normal" in="SourceGraphic" in2="effect1_backgroundBlur_85_106" result="shape"/>
</filter>
<filter id="filter12_b_85_106" x="584.036" y="80.8703" width="50.9312" height="31.595" filterUnits="userSpaceOnUse" color-interpolation-filters="sRGB">
<feFlood flood-opacity="0" result="BackgroundImageFix"/>
<feGaussianBlur in="BackgroundImageFix" stdDeviation="4.5"/>
<feComposite in2="SourceAlpha" operator="in" result="effect1_backgroundBlur_85_106"/>
<feBlend mode="normal" in="SourceGraphic" in2="effect1_backgroundBlur_85_106" result="shape"/>
</filter>
<filter id="filter13_b_85_106" x="589.58" y="104.347" width="27.358" height="22.524" filterUnits="userSpaceOnUse" color-interpolation-filters="sRGB">
<feFlood flood-opacity="0" result="BackgroundImageFix"/>
<feGaussianBlur in="BackgroundImageFix" stdDeviation="4.5"/>
<feComposite in2="SourceAlpha" operator="in" result="effect1_backgroundBlur_85_106"/>
<feBlend mode="normal" in="SourceGraphic" in2="effect1_backgroundBlur_85_106" result="shape"/>
</filter>
<linearGradient id="paint0_linear_85_106" x1="965.74" y1="16.5002" x2="936.519" y2="14.2524" gradientUnits="userSpaceOnUse">
<stop stop-color="#41B5D9" stop-opacity="0"/>
<stop offset="1" stop-color="#41B5D9"/>
</linearGradient>
<linearGradient id="paint1_linear_85_106" x1="930.846" y1="-32.8299" x2="933.073" y2="71.9673" gradientUnits="userSpaceOnUse">
<stop stop-color="white" stop-opacity="0.4"/>
<stop offset="1" stop-color="white" stop-opacity="0"/>
</linearGradient>
<radialGradient id="paint2_radial_85_106" cx="0" cy="0" r="1" gradientUnits="userSpaceOnUse" gradientTransform="translate(967.035 45.0347) rotate(110.073) scale(20.2382 15.7408)">
<stop stop-color="white"/>
<stop offset="1" stop-color="white" stop-opacity="0.5"/>
</radialGradient>
<linearGradient id="paint3_linear_85_106" x1="977.149" y1="27.1838" x2="987.893" y2="37.2839" gradientUnits="userSpaceOnUse">
<stop stop-color="white" stop-opacity="0.4"/>
<stop offset="1" stop-color="white" stop-opacity="0"/>
</linearGradient>
<radialGradient id="paint4_radial_85_106" cx="0" cy="0" r="1" gradientUnits="userSpaceOnUse" gradientTransform="translate(973.371 47.3503) rotate(110.073) scale(6.74605 0.87449)">
<stop stop-color="white"/>
<stop offset="1" stop-color="white" stop-opacity="0.5"/>
</radialGradient>
<linearGradient id="paint5_linear_85_106" x1="964.476" y1="22.5531" x2="975.221" y2="32.6532" gradientUnits="userSpaceOnUse">
<stop stop-color="white" stop-opacity="0.4"/>
<stop offset="1" stop-color="white" stop-opacity="0"/>
</linearGradient>
<radialGradient id="paint6_radial_85_106" cx="0" cy="0" r="1" gradientUnits="userSpaceOnUse" gradientTransform="translate(960.698 42.7196) rotate(110.073) scale(6.74606 0.874488)">
<stop stop-color="white"/>
<stop offset="1" stop-color="white" stop-opacity="0.5"/>
</radialGradient>
<linearGradient id="paint7_linear_85_106" x1="53.8903" y1="78.7192" x2="7.48606" y2="41.5959" gradientUnits="userSpaceOnUse">
<stop stop-color="#41B5D9" stop-opacity="0"/>
<stop offset="1" stop-color="#41B5D9"/>
</linearGradient>
<linearGradient id="paint8_linear_85_106" x1="-1.68339" y1="33.2828" x2="-3.85409" y2="42.5814" gradientUnits="userSpaceOnUse">
<stop stop-color="white" stop-opacity="0.4"/>
<stop offset="1" stop-color="white" stop-opacity="0"/>
</linearGradient>
<radialGradient id="paint9_radial_85_106" cx="0" cy="0" r="1" gradientUnits="userSpaceOnUse" gradientTransform="translate(56.7462 54.2769) rotate(105) scale(1.71867 16.041)">
<stop stop-color="white"/>
<stop offset="1" stop-color="white" stop-opacity="0.5"/>
</radialGradient>
<linearGradient id="paint10_linear_85_106" x1="20.9067" y1="28.6601" x2="18.8883" y2="37.9865" gradientUnits="userSpaceOnUse">
<stop stop-color="white" stop-opacity="0.4"/>
<stop offset="1" stop-color="white" stop-opacity="0"/>
</linearGradient>
<radialGradient id="paint11_radial_85_106" cx="0" cy="0" r="1" gradientUnits="userSpaceOnUse" gradientTransform="translate(59.4149 44.3163) rotate(105) scale(1.71868 10.694)">
<stop stop-color="white"/>
<stop offset="1" stop-color="white" stop-opacity="0.5"/>
</radialGradient>
<linearGradient id="paint12_linear_85_106" x1="-33.0746" y1="-8.93494" x2="-32.4943" y2="120.1" gradientUnits="userSpaceOnUse">
<stop stop-color="white" stop-opacity="0.4"/>
<stop offset="1" stop-color="white" stop-opacity="0"/>
</linearGradient>
<radialGradient id="paint13_radial_85_106" cx="0" cy="0" r="1" gradientUnits="userSpaceOnUse" gradientTransform="translate(47.8494 87.4793) rotate(105) scale(24.0615 26.7349)">
<stop stop-color="white"/>
<stop offset="1" stop-color="white" stop-opacity="0.5"/>
</radialGradient>
<linearGradient id="paint14_linear_85_106" x1="1347.63" y1="77.427" x2="1300.59" y2="39.7956" gradientUnits="userSpaceOnUse">
<stop stop-color="#41B5D9" stop-opacity="0"/>
<stop offset="1" stop-color="#41B5D9"/>
</linearGradient>
<linearGradient id="paint15_linear_85_106" x1="1291.29" y1="31.3688" x2="1289.09" y2="40.7947" gradientUnits="userSpaceOnUse">
<stop stop-color="white" stop-opacity="0.4"/>
<stop offset="1" stop-color="white" stop-opacity="0"/>
</linearGradient>
<radialGradient id="paint16_radial_85_106" cx="0" cy="0" r="1" gradientUnits="userSpaceOnUse" gradientTransform="translate(1350.52 52.6502) rotate(105) scale(1.7422 16.2605)">
<stop stop-color="white"/>
<stop offset="1" stop-color="white" stop-opacity="0.5"/>
</radialGradient>
<linearGradient id="paint17_linear_85_106" x1="1314.19" y1="26.6828" x2="1312.15" y2="36.1369" gradientUnits="userSpaceOnUse">
<stop stop-color="white" stop-opacity="0.4"/>
<stop offset="1" stop-color="white" stop-opacity="0"/>
</linearGradient>
<radialGradient id="paint18_radial_85_106" cx="0" cy="0" r="1" gradientUnits="userSpaceOnUse" gradientTransform="translate(1353.23 42.5533) rotate(105) scale(1.7422 10.8403)">
<stop stop-color="white"/>
<stop offset="1" stop-color="white" stop-opacity="0.5"/>
</radialGradient>
<linearGradient id="paint19_linear_85_106" x1="1259.47" y1="-11.4267" x2="1260.06" y2="119.374" gradientUnits="userSpaceOnUse">
<stop stop-color="white" stop-opacity="0.4"/>
<stop offset="1" stop-color="white" stop-opacity="0"/>
</linearGradient>
<radialGradient id="paint20_radial_85_106" cx="0" cy="0" r="1" gradientUnits="userSpaceOnUse" gradientTransform="translate(1341.5 86.307) rotate(105) scale(24.3907 27.1008)">
<stop stop-color="white"/>
<stop offset="1" stop-color="white" stop-opacity="0.5"/>
</radialGradient>
<linearGradient id="paint21_linear_85_106" x1="317" y1="4.05" x2="286.625" y2="-20.25" gradientUnits="userSpaceOnUse">
<stop stop-color="#41B5D9" stop-opacity="0"/>
<stop offset="1" stop-color="#41B5D9"/>
</linearGradient>
<linearGradient id="paint22_linear_85_106" x1="249.5" y1="-40.4998" x2="271.728" y2="40.9869" gradientUnits="userSpaceOnUse">
<stop stop-color="white" stop-opacity="0.4"/>
<stop offset="1" stop-color="white" stop-opacity="0"/>
</linearGradient>
<radialGradient id="paint23_radial_85_106" cx="0" cy="0" r="1" gradientUnits="userSpaceOnUse" gradientTransform="translate(317 6.75022) rotate(90) scale(15.75 17.5)">
<stop stop-color="white"/>
<stop offset="1" stop-color="white" stop-opacity="0.5"/>
</radialGradient>
<linearGradient id="paint24_linear_85_106" x1="615.277" y1="129.421" x2="566.445" y2="148.786" gradientUnits="userSpaceOnUse">
<stop stop-color="#41B5D9" stop-opacity="0"/>
<stop offset="1" stop-color="#41B5D9"/>
</linearGradient>
<linearGradient id="paint25_linear_85_106" x1="506.736" y1="64.043" x2="586.588" y2="161.35" gradientUnits="userSpaceOnUse">
<stop stop-color="white" stop-opacity="0.4"/>
<stop offset="1" stop-color="white" stop-opacity="0"/>
</linearGradient>
<radialGradient id="paint26_radial_85_106" cx="0" cy="0" r="1" gradientUnits="userSpaceOnUse" gradientTransform="translate(611.014 100.597) rotate(68.9532) scale(23.8549 21.828)">
<stop stop-color="white"/>
<stop offset="1" stop-color="white" stop-opacity="0.5"/>
</radialGradient>
<linearGradient id="paint27_linear_85_106" x1="580.889" y1="92.6428" x2="584.15" y2="99.7109" gradientUnits="userSpaceOnUse">
<stop stop-color="white" stop-opacity="0.4"/>
<stop offset="1" stop-color="white" stop-opacity="0"/>
</linearGradient>
<radialGradient id="paint28_radial_85_106" cx="0" cy="0" r="1" gradientUnits="userSpaceOnUse" gradientTransform="translate(605.974 87.5007) rotate(68.9532) scale(1.40323 6.5484)">
<stop stop-color="white"/>
<stop offset="1" stop-color="white" stop-opacity="0.5"/>
</radialGradient>
<linearGradient id="paint29_linear_85_106" x1="560.844" y1="110.881" x2="563.878" y2="118.062" gradientUnits="userSpaceOnUse">
<stop stop-color="white" stop-opacity="0.4"/>
<stop offset="1" stop-color="white" stop-opacity="0"/>
</linearGradient>
<radialGradient id="paint30_radial_85_106" cx="0" cy="0" r="1" gradientUnits="userSpaceOnUse" gradientTransform="translate(609.502 96.6678) rotate(68.9532) scale(1.40323 13.0968)">
<stop stop-color="white"/>
<stop offset="1" stop-color="white" stop-opacity="0.5"/>
</radialGradient>
<linearGradient id="paint31_linear_85_106" x1="589.96" y1="116.216" x2="593.645" y2="123.017" gradientUnits="userSpaceOnUse">
<stop stop-color="white" stop-opacity="0.4"/>
<stop offset="1" stop-color="white" stop-opacity="0"/>
</linearGradient>
<radialGradient id="paint32_radial_85_106" cx="0" cy="0" r="1" gradientUnits="userSpaceOnUse" gradientTransform="translate(603.259 115.609) rotate(68.9532) scale(1.40323 3.2742)">
<stop stop-color="white"/>
<stop offset="1" stop-color="white" stop-opacity="0.5"/>
</radialGradient>
</defs>
</svg>
